<svg width="300" height="240" viewBox="0 0 300 240" fill="none" xmlns="http://www.w3.org/2000/svg">
<path d="M88.5 159L138 163.828V240H32L88.5 159Z" fill="#DCDDCC"/>
<path d="M208.693 237.734L101.829 74.1589C98.6236 69.253 105.019 63.7855 109.367 67.7147L290.363 231.29C293.759 234.359 291.588 240 287.01 240H212.879C211.191 240 209.617 239.148 208.693 237.734Z" fill="#3E9837"/>
<path d="M7.05814 231.749L193.108 14.2728C196.439 10.379 202.774 13.4199 201.82 18.4544L160.593 235.931C160.145 238.291 158.09 240 155.688 240H101C84.5 240 123.5 163.5 123.5 163.5C123.5 163.5 71 240 67 240H10.8358C6.56623 240 4.28265 234.993 7.05814 231.749Z" fill="#4AA73C"/>
</svg>
