<svg width="20" height="20" viewBox="0 0 20 20" fill="none" xmlns="http://www.w3.org/2000/svg">
<path d="M13.75 7H10.75V12.296L12.693 10.248C12.8274 10.105 13.0124 10.0204 13.2084 10.0123C13.4045 10.0042 13.5959 10.0732 13.7416 10.2046C13.8873 10.3359 13.9758 10.5191 13.988 10.7149C14.0002 10.9107 13.9353 11.1035 13.807 11.252L10.557 14.752C10.4867 14.83 10.4008 14.8923 10.3048 14.935C10.2089 14.9777 10.105 14.9998 10 14.9998C9.89499 14.9998 9.79114 14.9777 9.69519 14.935C9.59924 14.8923 9.51332 14.83 9.443 14.752L6.193 11.252C6.12464 11.1793 6.07148 11.0936 6.03664 11.0001C6.00181 10.9066 5.98599 10.807 5.99012 10.7073C5.99425 10.6075 6.01825 10.5096 6.06071 10.4193C6.10316 10.329 6.16322 10.248 6.23737 10.1812C6.31151 10.1144 6.39825 10.063 6.4925 10.0302C6.58674 9.99729 6.6866 9.98356 6.78622 9.98978C6.88584 9.996 6.98322 10.022 7.07264 10.0664C7.16207 10.1107 7.24174 10.1725 7.307 10.248L9.25 12.296V7H10.75V1.75C10.75 1.55109 10.671 1.36032 10.5303 1.21967C10.3897 1.07902 10.1989 1 10 1C9.80109 1 9.61032 1.07902 9.46967 1.21967C9.32902 1.36032 9.25 1.55109 9.25 1.75V7H6.25C5.65326 7 5.08097 7.23705 4.65901 7.65901C4.23705 8.08097 4 8.65326 4 9.25V16.75C4 17.0455 4.0582 17.3381 4.17127 17.611C4.28434 17.884 4.45008 18.1321 4.65901 18.341C4.86794 18.5499 5.11598 18.7157 5.38896 18.8287C5.66194 18.9418 5.95453 19 6.25 19H13.75C14.0455 19 14.3381 18.9418 14.611 18.8287C14.884 18.7157 15.1321 18.5499 15.341 18.341C15.5499 18.1321 15.7157 17.884 15.8287 17.611C15.9418 17.3381 16 17.0455 16 16.75V9.25C16 8.65326 15.7629 8.08097 15.341 7.65901C14.919 7.23705 14.3467 7 13.75 7Z" fill="#179F6E"/>
</svg>
