<svg width="783" height="63" viewBox="0 0 783 63" fill="none" xmlns="http://www.w3.org/2000/svg">
<path fill-rule="evenodd" clip-rule="evenodd" d="M9.94504 1.35994C10.3861 1.00385 10.9601 0.722482 11.535 0.819346C12.1054 0.96049 12.7074 1.18743 13.0518 1.70311C13.652 2.56751 13.5543 3.79445 12.9352 4.62102L12.8882 4.57305C13.0544 4.78087 13.2382 4.97157 13.4221 5.16241C13.5182 5.26215 13.6143 5.36193 13.708 5.4642C14.4531 6.30017 15.1483 7.17972 15.8433 8.05914C16.1845 8.49081 16.5256 8.92247 16.8726 9.3489C17.3562 9.95038 17.8352 10.5556 18.308 11.1663L18.2375 11.241C18.4215 11.2086 18.6009 11.1543 18.7802 11.1C19.0403 11.0213 19.3001 10.9425 19.5735 10.931C20.5976 10.895 21.6434 10.9596 22.6178 11.3092C22.9025 11.4144 23.1837 11.574 23.3518 11.8424C23.7172 11.8146 24.072 11.7268 24.4269 11.639C24.7664 11.5549 25.1061 11.4709 25.4552 11.4393C26.4498 11.2769 27.4579 11.2964 28.4625 11.3159C28.5934 11.3184 28.7249 11.3209 28.8557 11.3231C32.1866 11.5546 35.5094 12.8618 37.9192 15.2594C38.1197 15.4002 38.274 15.5875 38.4286 15.7751C38.5353 15.9046 38.6421 16.0342 38.7643 16.1487C39.5451 17.0039 40.1563 17.9971 40.7633 18.9833L40.8425 19.112C40.8711 19.1584 40.8997 19.2048 40.9283 19.2511C42.1856 19.1257 43.2766 19.9311 44.2058 20.6921C44.6024 20.4268 45.0362 20.2366 45.4703 20.0463C45.8466 19.8813 46.2233 19.7163 46.5759 19.5021C46.4782 18.8259 46.7087 18.0943 47.2339 17.6552C47.6389 17.2668 48.2183 17.1008 48.7651 17.1727C49.4349 17.2779 50.0198 17.7668 50.2873 18.3978C50.6416 19.2456 50.4184 20.3277 49.6835 20.8914C49.0164 21.4191 47.9977 21.4006 47.365 20.8231C46.6645 21.42 45.9278 21.9892 45.117 22.4218C45.2697 23.3314 45.2218 24.2742 44.91 25.1451C44.6515 26.0095 44.2194 26.9467 43.377 27.3462C43.3595 27.7165 43.3842 28.0869 43.4088 28.4571C43.4415 28.9499 43.4743 29.4427 43.4077 29.9348C43.3824 30.1422 43.3785 30.3511 43.3746 30.5598C43.3698 30.8207 43.3649 31.0815 43.3182 31.3388C43.1881 32.2087 42.8138 33.0104 42.436 33.7918C42.2894 34.1075 42.0002 34.2952 41.7186 34.4779C41.6529 34.5205 41.5877 34.5628 41.5249 34.6064C41.1859 34.8315 40.7367 35.0372 40.3426 34.8305C39.7198 34.4689 39.4197 33.7457 39.2778 33.0612C39.1575 32.573 39.1618 32.0718 39.1661 31.5722C39.1674 31.4222 39.1687 31.2723 39.1666 31.123L39.1658 31.1092C39.0676 29.3074 38.9685 27.4921 38.5772 25.7263C38.3142 24.5657 37.8641 23.396 36.9864 22.5749C36.4305 22.0962 35.7941 21.7096 35.1108 21.455C34.0884 21.1451 33.0227 20.9652 31.9543 20.9882C30.6644 20.9587 29.3935 21.2345 28.1525 21.5657C26.8969 21.8987 25.711 22.4449 24.5396 23.0048C23.815 23.3181 23.1212 23.6947 22.4274 24.0713C22.2308 24.1781 22.0334 24.2851 21.836 24.3905C21.3352 24.6663 20.8399 24.956 20.3888 25.3111C20.2145 25.4468 20.0375 25.5799 19.8602 25.713C19.2074 26.2034 18.5521 26.6957 18.026 27.3305C17.3553 28.1377 16.7596 29.0602 16.5562 30.1146C16.3004 31.6663 16.5915 33.2623 17.1329 34.7198C17.7521 36.3287 18.6768 37.8093 19.8221 39.0815C20.5649 40.0318 21.5385 40.7433 22.5002 41.4462C22.5636 41.4926 22.627 41.5389 22.6902 41.5852C23.2497 41.9597 23.6167 42.6221 23.6212 43.3075C23.5688 43.8795 23.1412 44.3278 22.7001 44.6405C22.2246 44.9404 21.6687 45.135 21.1056 45.1175C19.7868 45.1055 18.4572 44.945 17.2053 44.5095C16.8359 44.383 16.4873 44.2082 16.1388 44.0334C15.9893 43.9584 15.8396 43.8833 15.6885 43.8121C15.6104 43.8772 15.5325 43.9427 15.4545 44.0082C14.9749 44.4114 14.4932 44.8165 13.9466 45.1212C13.1295 45.5594 12.1687 45.7762 11.2521 45.6009C10.1276 45.409 9.07458 44.8583 8.22219 44.0926C8.05995 44.1943 7.89573 44.2926 7.73155 44.3909C7.46418 44.5509 7.19638 44.7111 6.93774 44.886C6.78664 44.9847 6.63968 45.09 6.49274 45.1953C6.21688 45.3931 5.94106 45.5907 5.63792 45.7448C5.99678 46.7596 5.7952 47.9385 5.14349 48.7836C4.73763 49.2845 4.2432 49.755 3.60504 49.91C2.65684 50.1959 1.61192 49.8454 0.924048 49.1461C0.104204 48.219 -0.194989 46.7817 0.366337 45.6415C0.805636 44.6738 1.80897 44.016 2.85118 44.0105C3.53272 44.0704 4.1754 44.3389 4.78373 44.6424C5.10281 44.1199 5.54506 43.7077 5.98753 43.2952C6.2771 43.0253 6.56676 42.7553 6.82204 42.4542C6.36467 41.7227 6.00491 40.8638 6.08807 39.98C6.31947 38.4108 6.82475 36.8555 7.74403 35.5612C7.83611 35.4488 7.84954 35.3021 7.86231 35.1625L7.86425 35.1414C7.77866 34.8874 7.772 34.6211 7.76532 34.3548C7.76135 34.1964 7.75738 34.038 7.73682 33.8822C7.69841 33.6093 7.69334 33.3346 7.68829 33.06C7.6843 32.8436 7.68031 32.6272 7.65999 32.4117C7.60891 31.9412 7.61063 31.468 7.61234 30.995C7.61309 30.79 7.61383 30.585 7.61028 30.3803C7.59129 29.0565 7.6157 27.7253 7.81546 26.4144C8.0089 25.1977 8.49882 24.0556 9.05382 22.9698C9.65582 21.8203 10.4241 20.765 11.2919 19.8093C11.7664 19.2521 12.2726 18.7198 12.8367 18.2567C13.0673 18.0028 13.3292 17.7829 13.5908 17.5633C13.9044 17.3 14.2177 17.0369 14.4764 16.7161C14.3598 15.598 14.5803 14.4144 15.2474 13.5011C15.4393 13.1814 15.7107 12.9367 15.9823 12.6919C16.1213 12.5665 16.2605 12.4411 16.389 12.3056C16.2086 12.1163 16.0743 11.8929 15.9401 11.6697C15.9062 11.6133 15.8723 11.5569 15.8376 11.5011C14.9039 9.9799 13.9973 8.44023 13.1539 6.86458C12.9985 6.58105 12.8171 6.3144 12.6357 6.04778C12.4701 5.80433 12.3045 5.56086 12.1587 5.3046C11.6118 5.419 11.0171 5.49556 10.4892 5.26217C9.69827 4.93006 9.08723 4.13855 9.01944 3.26124C9.06283 2.53707 9.4506 1.86548 9.94504 1.35994ZM9.19031 34.0898C9.27368 34.0582 9.35802 34.0343 9.44289 34.0173L8.36352 34.7012C8.39443 34.6706 8.42533 34.6399 8.45639 34.6095C8.67387 34.3967 8.89922 34.196 9.19031 34.0898ZM30.9392 31.9763C30.1085 31.3093 28.6442 31.4624 28.1462 32.4809C27.8496 33.0567 27.855 33.7188 27.8602 34.3546C27.8607 34.4145 27.8612 34.4742 27.8614 34.5335C27.8614 39.9486 27.8614 45.3629 27.8605 50.778C27.8669 51.3398 27.9437 51.9339 28.2655 52.4063C28.4933 52.7467 28.8666 52.9653 29.2616 53.0363C29.8735 53.1489 30.575 53.0576 31.0341 52.5935C31.5114 52.1267 31.6416 51.4192 31.6488 50.7716C31.6532 49.753 31.6526 48.7346 31.6519 47.7164C31.6514 46.859 31.6508 46.0015 31.6533 45.1442C31.6687 44.4385 31.6967 43.7282 31.8269 43.0335C32.0908 41.6221 33.331 40.4339 34.7537 40.3592C35.5555 40.302 36.5019 40.4855 36.9638 41.2309C37.4862 42.1249 37.5622 43.2023 37.5721 44.2199C37.5725 45.1425 37.5724 46.0652 37.5723 46.9879C37.5721 48.2202 37.572 49.4525 37.573 50.6848C37.5766 51.2706 37.6399 51.8924 37.9689 52.3915C38.6667 53.386 40.3896 53.2992 41.0006 52.2467C41.3152 51.7245 41.3568 51.0917 41.3477 50.4939C41.346 49.3224 41.3463 48.1508 41.3467 46.9793C41.347 45.6905 41.3474 44.4017 41.345 43.1129C41.3215 41.9514 41.2465 40.7217 40.621 39.7134C39.9919 38.5621 38.8349 37.7623 37.5739 37.5151C36.3681 37.278 35.0845 37.3785 33.9465 37.8619C33.0363 38.2475 32.3023 38.9477 31.6497 39.6839L31.6503 39.272C31.6529 37.4748 31.6555 35.6776 31.6479 33.8803C31.6416 33.1931 31.4888 32.4302 30.9392 31.9763ZM80.7165 31.8222C81.2823 31.6838 81.9087 31.7936 82.3797 32.1488C83.1634 32.6931 83.2574 33.8905 82.8145 34.6866C82.1881 35.7254 80.6026 35.8324 79.7764 34.9892C79.3245 34.5455 79.2151 33.8481 79.3263 33.2411C79.4564 32.539 80.0521 31.992 80.7165 31.8222ZM53.2947 37.3804C51.5456 37.23 49.7269 37.2383 48.0583 37.8628C47.0035 38.2743 45.9703 38.9293 45.4117 39.9652C45.098 40.5271 44.9145 41.1885 45.004 41.837C45.1215 42.5529 45.8239 43.0603 46.5163 43.052L46.526 43.0518C46.8613 43.0473 47.266 43.0418 47.4943 42.7503C47.6717 42.517 47.8288 42.2657 47.9858 42.0143C48.2977 41.5153 48.6097 41.016 49.0816 40.6571C49.8508 40.0215 50.8975 39.9717 51.8439 39.9855C52.5245 40.0188 53.3055 40.1064 53.7828 40.6636C54.2799 41.3324 54.383 42.2088 54.4218 43.0234C52.7677 43.5105 51.0855 43.8905 49.3979 44.2374C49.1744 44.2892 48.9487 44.335 48.7228 44.3809C48.0561 44.5162 47.3873 44.6519 46.7676 44.944C45.9775 45.3011 45.2815 45.8915 44.835 46.6507C44.3369 47.493 44.205 48.528 44.3659 49.4893C44.5729 50.695 45.3412 51.7743 46.3834 52.3749C47.6118 53.1175 49.1114 53.1913 50.4925 52.9708C52.0608 52.7236 53.4474 51.8463 54.6758 50.862C55.0519 51.4653 55.4342 52.0769 55.9476 52.5705C56.2098 52.8195 56.5307 53.028 56.894 53.0695C57.6244 53.148 58.3611 52.707 58.7009 52.0529C58.9217 51.6261 58.7962 51.1521 58.6785 50.708C58.6594 50.6358 58.6404 50.5642 58.6232 50.4939C58.362 49.6258 58.1288 48.7356 58.1251 47.8204C58.1266 47.2591 58.1318 46.6977 58.137 46.1362C58.1476 44.9833 58.1582 43.83 58.1369 42.6774C58.0673 41.3573 57.8666 39.92 56.9718 38.897C56.0416 37.8545 54.6153 37.5215 53.2947 37.3804ZM48.3385 47.481C48.6874 46.9625 49.2678 46.6387 49.8526 46.4754C50.4018 46.3338 50.9563 46.2128 51.5107 46.0917C52.4944 45.877 53.4782 45.6622 54.4327 45.3324C54.4318 45.3902 54.4311 45.4482 54.4305 45.5064C54.43 45.553 54.4295 45.5997 54.429 45.6464V45.6487C54.4189 46.6531 54.4085 47.6913 53.9735 48.6101C53.3986 49.6978 52.2018 50.3038 51.0367 50.4542C50.2422 50.5621 49.3482 50.4598 48.7426 49.874C48.0891 49.2992 47.8956 48.242 48.3385 47.481ZM62.0788 37.7798C62.8255 37.111 64.1506 37.2484 64.7047 38.1101C65.0744 38.6553 65.0762 39.3472 65.0671 39.9837C65.8771 38.9763 66.875 38.0575 68.1151 37.6608C69.7205 37.1544 71.5346 37.3675 72.9827 38.2401C73.9761 38.8204 74.767 39.7235 75.2967 40.7521C76.0677 42.2014 76.3081 43.8832 76.272 45.5142C76.2304 47.2835 75.7812 49.0861 74.7679 50.5428C73.7998 51.9367 72.2333 52.8777 70.5647 53.0428C69.2929 53.1646 67.9307 52.9893 66.8605 52.2291C66.2004 51.7965 65.6687 51.205 65.1424 50.6196L65.0717 50.5409C65.0666 51.5218 65.0674 52.5027 65.0682 53.4836C65.069 54.4252 65.0698 55.3669 65.0653 56.3085C65.0509 57.0078 64.9686 57.7817 64.4823 58.3196C64.0991 58.7439 63.4935 58.8436 62.9556 58.7845C62.529 58.7485 62.0671 58.5751 61.8502 58.1738C61.5609 57.6341 61.503 57.0031 61.4877 56.3989C61.4868 53.5848 61.4868 50.7709 61.4868 47.957C61.4868 45.1431 61.4868 42.3292 61.4859 39.5151C61.4886 38.8979 61.6079 38.2125 62.0788 37.7798ZM68.2489 40.3278C67.2248 40.5317 66.3525 41.2752 65.8644 42.2014C65.2877 43.3278 65.1991 44.6396 65.2696 45.8869C65.3446 47.1304 65.7659 48.4182 66.7123 49.255C67.5466 50.0409 68.7985 50.3232 69.8814 49.9745C70.656 49.7236 71.3059 49.1461 71.71 48.4321C72.4322 47.1987 72.5515 45.7042 72.4331 44.302C72.3201 43.0695 71.879 41.79 70.9199 40.98C70.1914 40.3509 69.1772 40.1248 68.2489 40.3278ZM82.452 37.8914C81.9783 37.4219 81.257 37.2964 80.6315 37.4579C79.7719 37.6627 79.2965 38.5787 79.2946 39.4283C79.2843 41.6521 79.286 43.8758 79.2877 46.0997C79.2887 47.3799 79.2896 48.66 79.2883 49.9404C79.29 50.0705 79.2887 50.2014 79.2873 50.3326C79.2822 50.8201 79.2771 51.3116 79.4302 51.7789C79.592 52.3103 79.9834 52.7808 80.505 52.9681C81.1748 53.207 81.991 53.0668 82.4882 52.5308C82.9383 52.0723 83.0685 51.3943 83.0721 50.7679C83.074 48.111 83.0736 45.4537 83.0733 42.7965C83.0731 41.7337 83.073 40.6709 83.073 39.6082C83.0811 38.9865 82.9166 38.3223 82.452 37.8914Z" fill="black"/>
<g clip-path="url(#clip0_3_20500)">
<path d="M213.247 51.0561L246.116 12.9978C246.704 12.3164 247.823 12.8485 247.655 13.7295L240.371 51.788C240.292 52.201 239.928 52.5 239.503 52.5H213.918C213.164 52.5 212.757 51.6238 213.247 51.0561Z" fill="black"/>
<path d="M248.869 52.1034L229.99 23.4778C229.424 22.6193 230.553 21.6625 231.322 22.3501L263.297 50.9757C263.897 51.5128 263.514 52.5 262.705 52.5H249.609C249.31 52.5 249.032 52.3509 248.869 52.1034Z" fill="black"/>
</g>
<g clip-path="url(#clip1_3_20500)">
<path fill-rule="evenodd" clip-rule="evenodd" d="M417.424 10.4561C417.689 10.3669 417.976 10.3 418.286 10.3C418.684 10.3 419.115 10.3892 419.591 10.6791C420.088 11.0358 420.718 11.5487 420.685 12.3179C420.557 12.5792 420.262 12.8003 419.921 13.0557C419.112 13.6611 418.046 14.4592 418.341 16.4429C418.286 16.3649 418.242 16.2757 418.209 16.1976C417.822 15.551 417.733 14.7483 418.054 14.0014C418.115 13.8315 418.184 13.7008 418.25 13.5764C418.409 13.276 418.549 13.0115 418.518 12.3179C418.518 12.251 418.507 12.1841 418.496 12.1173C418.49 12.0782 418.482 12.0448 418.474 12.0113C418.466 11.9779 418.457 11.9444 418.452 11.9054C418.297 11.3369 417.987 10.8352 417.424 10.4561ZM421.78 11.1664C421.777 11.1304 421.774 11.0974 421.802 10.9355C422.144 11.047 422.487 11.1697 422.852 11.4038C422.93 11.4372 422.996 11.4707 423.073 11.5153C423.593 11.8497 424.113 12.2176 424.61 12.6078C424.71 12.697 424.809 12.7974 424.897 12.8866C425.074 13.0761 425.24 13.2656 425.406 13.4551C425.561 13.6558 425.705 13.8565 425.848 14.0683C425.981 14.2801 426.102 14.5031 426.224 14.7261C426.335 14.949 426.445 15.1832 426.534 15.4173C426.605 15.6049 426.668 15.7996 426.731 15.9901C426.746 16.0373 426.762 16.0843 426.777 16.1308C426.843 16.376 426.898 16.6213 426.943 16.8777L426.943 16.8789C426.976 17.1238 427.009 17.3687 427.031 17.6247L427.031 17.6276C427.042 17.805 427.053 17.9824 427.053 18.1598C427.053 18.4045 427.031 18.6602 427.009 18.916L427.009 18.9179C426.989 19.1439 426.95 19.3698 426.909 19.6045C426.905 19.6245 426.902 19.6447 426.898 19.6649C426.843 19.9102 426.788 20.1554 426.711 20.3895C426.633 20.6348 426.545 20.8689 426.445 21.103C426.346 21.3371 426.235 21.5601 426.113 21.7831C426.014 21.9615 425.903 22.1398 425.793 22.3182C425.782 22.3349 425.771 22.3545 425.76 22.374C425.749 22.3935 425.738 22.413 425.727 22.4297C425.583 22.6304 425.428 22.8311 425.262 23.0317C425.096 23.2212 424.931 23.4108 424.743 23.578C424.566 23.7564 424.378 23.9236 424.179 24.0797C423.98 24.2357 423.77 24.3806 423.56 24.5255C423.339 24.6593 423.128 24.782 422.896 24.8935C422.675 25.005 422.443 25.1165 422.2 25.2057C421.968 25.2949 421.724 25.3729 421.481 25.4398C421.238 25.5067 420.995 25.5624 420.74 25.607C420.497 25.6516 420.254 25.674 420.011 25.6962H420.022C420.265 25.7743 420.508 25.8411 420.763 25.8857C421.006 25.9415 421.26 25.975 421.514 25.9972C421.757 26.0196 422.012 26.0419 422.266 26.0419C422.443 26.0419 422.62 26.0307 422.797 26.0196L422.829 26.0166C423.062 25.9953 423.306 25.973 423.549 25.9304C423.792 25.8858 424.046 25.83 424.289 25.7632C424.533 25.6963 424.776 25.6182 425.008 25.529C425.24 25.4288 425.472 25.3283 425.704 25.2169C425.926 25.1054 426.147 24.9716 426.357 24.8378C426.578 24.704 426.777 24.5591 426.976 24.403C427.02 24.3643 427.061 24.3282 427.102 24.2922C427.144 24.2558 427.186 24.2193 427.23 24.1801C427.341 24.0909 427.44 24.0017 427.551 23.9014C427.728 23.723 427.905 23.5446 428.07 23.3439C428.225 23.1544 428.38 22.9537 428.524 22.7419C428.667 22.5412 428.8 22.3183 428.922 22.1064C429.043 21.8835 429.154 21.6493 429.253 21.4264C429.353 21.1923 429.441 20.947 429.519 20.7129C429.585 20.4677 429.652 20.2223 429.707 19.9771C429.751 19.7318 429.784 19.4865 429.817 19.2301L429.817 19.2281C429.828 19.095 429.839 18.9619 429.839 18.8288C429.846 18.8351 429.848 18.8379 429.85 18.8411C429.851 18.8436 429.85 18.8463 429.85 18.8511C429.85 18.8463 429.85 18.8436 429.851 18.8412C429.852 18.8379 429.855 18.8352 429.861 18.8288C429.861 18.8451 429.868 18.8555 429.875 18.8687C429.878 18.8734 429.881 18.8786 429.884 18.8845C432.946 21.9504 440.265 33.5894 432.283 44.816C432.449 43.0211 432.338 41.2039 431.962 39.4424C431.409 42.9988 429.784 46.3099 427.308 48.9187C426.412 49.8551 425.428 50.6801 424.356 51.3937C425.859 49.2531 426.876 46.8004 427.33 44.2251C425.085 48.2943 421.337 51.3156 416.882 52.6423C415.655 52.999 414.383 53.2109 413.112 53.3C415.865 52.018 418.22 50.067 419.978 47.6477C418.949 48.0825 417.877 48.4504 416.771 48.718C416.738 48.7291 416.705 48.7375 416.672 48.7459C416.639 48.7543 416.605 48.7626 416.572 48.7737C416.534 48.7793 416.495 48.7877 416.456 48.796C416.417 48.8044 416.379 48.8128 416.34 48.8183C416.312 48.8239 416.288 48.8295 416.263 48.8351C416.238 48.8406 416.213 48.8462 416.185 48.8518C416.108 48.8741 416.02 48.8964 415.942 48.9075C415.655 48.9633 415.367 49.019 415.08 49.0636H415.069L414.604 49.1305H414.593L414.56 49.0636C414.649 49.0079 414.726 48.9521 414.803 48.8964C414.814 48.8852 414.828 48.8769 414.842 48.8685C414.856 48.8601 414.87 48.8518 414.881 48.8406C414.969 48.7738 415.058 48.7069 415.146 48.6511C416.473 47.6478 417.534 46.3657 418.253 44.9052C418.258 44.8997 418.261 44.8941 418.264 44.8885C418.267 44.883 418.269 44.8774 418.275 44.8718C418.286 44.8495 418.297 44.8272 418.308 44.7937C418.35 44.7168 418.386 44.6333 418.421 44.5533C418.431 44.529 418.441 44.505 418.452 44.4816H418.463C418.485 44.4257 418.507 44.3727 418.529 44.3196C418.551 44.2668 418.573 44.2139 418.596 44.1583C418.621 44.1005 418.643 44.0391 418.665 43.9761C418.682 43.9296 418.698 43.8823 418.717 43.835C418.739 43.7793 418.759 43.7264 418.778 43.6735C418.797 43.6205 418.817 43.5675 418.839 43.5117L418.938 43.1772C418.938 43.1772 418.938 43.1661 418.949 43.1549C418.966 43.0782 418.99 43.0014 419.014 42.9197C419.022 42.8945 419.03 42.869 419.038 42.8428V42.8093C419.071 42.709 419.093 42.6086 419.115 42.5083C419.115 42.5027 419.118 42.4944 419.121 42.486C419.124 42.4776 419.126 42.4693 419.126 42.4637L419.193 42.1627V42.1292C419.204 42.0791 419.215 42.0261 419.226 41.9732C419.237 41.9202 419.248 41.8672 419.259 41.8171V41.8059V41.7947C419.264 41.739 419.273 41.686 419.281 41.6331C419.289 41.5801 419.298 41.5272 419.303 41.4714C419.314 41.438 419.314 41.4045 419.314 41.3711C419.32 41.3266 419.325 41.2848 419.331 41.2431C419.336 41.2012 419.342 41.1594 419.347 41.1147C419.347 41.0812 419.347 41.0478 419.358 41.0143C419.358 40.9683 419.361 40.9252 419.364 40.8835C419.367 40.8445 419.369 40.8068 419.369 40.7691C419.381 40.7133 419.381 40.6687 419.381 40.6241C419.381 40.5851 419.383 40.5489 419.386 40.5127C419.389 40.4764 419.392 40.4402 419.392 40.4012V40.2451C419.392 40.2116 419.394 40.1782 419.397 40.1448C419.4 40.1113 419.403 40.0779 419.403 40.0444C419.403 40.0165 419.4 39.9859 419.397 39.9552C419.394 39.9246 419.392 39.8939 419.392 39.866V39.6877C419.392 39.565 419.381 39.4424 419.37 39.3198C419.37 39.2306 419.359 39.1302 419.347 39.0299V38.9853C419.346 38.9754 419.345 38.9654 419.344 38.9553C419.334 38.8739 419.323 38.7847 419.303 38.6954V38.6843C419.288 38.534 419.261 38.3838 419.235 38.2375C419.224 38.1776 419.213 38.1183 419.204 38.0599C419.193 38.0098 419.182 37.9624 419.171 37.915C419.16 37.8676 419.149 37.8202 419.137 37.7701C418.408 42.72 414.394 46.4771 409.497 46.8227C408.557 46.8784 407.628 46.8115 406.711 46.622V46.6109C406.379 46.5217 405.627 46.3098 404.92 46.0757C404.4 45.8639 403.902 45.6186 403.427 45.3288L403.449 45.3065C403.637 45.1616 404.311 45.0166 404.975 44.894C403.217 43.7457 401.68 39.7768 404.256 38.0822C404.303 38.0618 404.346 38.0373 404.388 38.0136C404.414 37.9985 404.44 37.9838 404.466 37.9708C404.505 37.954 404.541 37.9373 404.577 37.9206C404.613 37.9039 404.649 37.8871 404.687 37.8704C404.765 37.837 404.842 37.8147 404.92 37.7924C404.997 37.7702 405.074 37.759 405.151 37.7479L405.152 37.7478C405.229 37.7255 405.307 37.7143 405.395 37.7143C405.423 37.7143 405.45 37.7115 405.478 37.7087C405.506 37.7059 405.533 37.7032 405.561 37.7032C405.638 37.7032 405.727 37.7143 405.804 37.7254C405.881 37.7254 405.959 37.7366 406.036 37.7589C406.113 37.77 406.19 37.7921 406.267 37.8143L406.268 37.8146C406.285 37.8202 406.299 37.8258 406.313 37.8313C406.326 37.8369 406.34 37.8425 406.357 37.8481C406.379 37.8536 406.404 37.862 406.429 37.8704C406.454 37.8787 406.478 37.8871 406.5 37.8927C406.578 37.9261 406.644 37.9596 406.711 38.0042C407.053 38.2606 407.053 38.6954 406.865 39.2305C406.829 39.2825 406.802 39.3345 406.774 39.3864C406.761 39.4125 406.748 39.4386 406.733 39.4646C406.7 39.5427 406.677 39.6207 406.655 39.6987C406.633 39.7768 406.611 39.8548 406.6 39.9329V40.1001C406.6 40.1893 406.6 40.2673 406.611 40.3454C406.622 40.4234 406.644 40.5014 406.677 40.5795C406.7 40.6575 406.733 40.7355 406.766 40.8135C406.779 40.8313 406.789 40.8528 406.799 40.8742C406.813 40.9064 406.828 40.9385 406.854 40.9585C407.407 41.7278 408.457 42.2406 409.508 42.1626C410.16 41.3376 410.635 40.3788 410.879 39.3531C411.034 40.0889 411.067 40.847 410.989 41.5828C411.896 40.9251 412.46 39.866 412.791 39.041C413.466 38.8737 414.936 39.5427 415.08 40.7467C414.328 33.0319 407.175 27.5691 399.336 29.3975C398.761 30.3563 398.098 31.2259 397.976 30.9471C397.866 30.6796 397.91 29.7765 397.976 29.0073C397.49 29.7877 397.004 30.4678 396.904 30.2448C396.816 30.0441 396.827 29.4755 396.86 28.8735C396.838 28.8679 396.813 28.8624 396.788 28.8568C396.763 28.8512 396.738 28.8457 396.716 28.8401C396.708 28.8358 396.701 28.8332 396.695 28.831C396.686 28.8273 396.679 28.8247 396.672 28.8178C396.594 28.7955 396.517 28.7732 396.451 28.7397C396.362 28.7063 396.274 28.6617 396.196 28.6171C396.108 28.5725 396.031 28.5279 395.953 28.4722C395.887 28.4276 395.821 28.3718 395.754 28.3161C395.743 28.3161 395.732 28.3049 395.732 28.3049C395.722 28.2965 395.713 28.2882 395.703 28.28C395.638 28.2237 395.58 28.1738 395.522 28.1154C395.456 28.0485 395.389 27.9705 395.334 27.9036L395.168 27.6695C395.124 27.5914 395.08 27.5134 395.036 27.4242C395.025 27.4132 395.014 27.3913 395.003 27.3694L395.002 27.3685C394.986 27.335 394.972 27.3016 394.958 27.2681C394.944 27.2347 394.931 27.2012 394.914 27.1678C394.881 27.0897 394.848 27.0006 394.826 26.9002C394.803 26.811 394.781 26.7218 394.77 26.6327C394.759 26.6104 394.759 26.5992 394.759 26.5769C394.754 26.5769 394.748 26.5741 394.743 26.5713C394.737 26.5685 394.732 26.5657 394.726 26.5657C394.703 26.5541 394.681 26.5439 394.661 26.5341C394.621 26.5155 394.585 26.4984 394.549 26.4765C394.25 26.3211 394.162 26.2418 393.968 26.0691C393.94 26.0436 393.909 26.0161 393.875 25.986C393.797 25.9303 393.731 25.8745 393.665 25.8076C393.598 25.7519 393.532 25.685 393.477 25.6293C393.422 25.5625 393.377 25.4958 393.333 25.4291C393.289 25.3622 393.244 25.2948 393.211 25.2279V25.2167C393.178 25.1499 393.156 25.083 393.134 25.0161C393.112 24.9492 393.101 24.8823 393.09 24.8042C393.079 24.7597 393.079 24.7039 393.079 24.6593C393.079 24.5898 393.087 24.5292 393.097 24.4616C393.098 24.4533 393.099 24.4449 393.101 24.4364C393.105 24.41 393.108 24.3734 393.111 24.3324C393.115 24.2694 393.12 24.1962 393.134 24.1353C393.134 24.1297 393.137 24.1242 393.139 24.1186C393.142 24.113 393.145 24.1075 393.145 24.1019C393.156 24.0131 393.178 23.9243 393.2 23.8355L393.2 23.8343C393.233 23.734 393.267 23.6337 393.3 23.5445C393.325 23.468 393.357 23.398 393.39 23.3246C393.4 23.3017 393.411 23.2784 393.421 23.2546C393.466 23.1654 393.521 23.0762 393.576 22.9982C393.603 22.9435 393.639 22.893 393.675 22.8415C393.698 22.8091 393.721 22.7763 393.742 22.7418C393.779 22.6888 393.822 22.641 393.866 22.5913C393.887 22.5678 393.909 22.5439 393.93 22.5188C393.996 22.4519 394.074 22.3739 394.151 22.3181C394.217 22.2512 394.295 22.1843 394.372 22.1286C394.411 22.1007 394.452 22.0756 394.494 22.0506C394.535 22.0255 394.577 22.0004 394.615 21.9725C394.704 21.9279 394.792 21.8833 394.881 21.8499L395.146 21.7495L395.151 21.7483C395.238 21.7264 395.325 21.7045 395.422 21.6827C395.45 21.6792 395.479 21.6746 395.508 21.6699C395.572 21.6597 395.638 21.6492 395.699 21.6492C395.95 21.6287 396.226 21.5492 396.51 21.4677C396.688 21.4166 396.869 21.3646 397.048 21.3259C397.291 21.2479 397.534 21.1587 397.766 21.0583C398.01 20.958 398.242 20.8465 398.463 20.7239C398.695 20.5901 398.905 20.4563 399.126 20.3002C399.336 20.1553 399.546 19.9881 399.745 19.8097C399.944 19.6425 400.132 19.4529 400.309 19.2634L400.342 19.23C400.387 19.1854 400.428 19.1408 400.47 19.0962C400.511 19.0516 400.552 19.007 400.597 18.9624C400.602 18.9513 400.61 18.9429 400.619 18.9345C400.627 18.9262 400.635 18.9178 400.641 18.9067C400.707 18.8398 400.774 18.7729 400.829 18.706C400.84 18.6949 400.854 18.6837 400.867 18.6726C400.881 18.6614 400.895 18.6503 400.906 18.6391C400.961 18.5722 401.017 18.5165 401.072 18.4607C401.079 18.4607 401.081 18.4565 401.085 18.4506C401.087 18.447 401.09 18.4427 401.094 18.4384C401.16 18.3716 401.227 18.3047 401.293 18.2489C401.297 18.2447 401.3 18.2404 401.302 18.2368C401.306 18.2309 401.308 18.2267 401.315 18.2267C401.348 18.1932 401.382 18.1625 401.415 18.1319C401.448 18.1012 401.481 18.0706 401.514 18.0371C401.518 18.0337 401.522 18.0304 401.527 18.0267C401.538 18.0182 401.551 18.008 401.558 17.9925C401.586 17.9702 401.614 17.9451 401.641 17.92C401.669 17.8949 401.697 17.8699 401.724 17.8476C401.735 17.842 401.746 17.8336 401.757 17.8253C401.769 17.8169 401.78 17.8086 401.791 17.803L401.957 17.6692L401.979 17.6469C402.045 17.5912 402.122 17.5354 402.189 17.4908C402.194 17.4853 402.2 17.4825 402.205 17.4797C402.211 17.4769 402.216 17.4741 402.222 17.4685C402.263 17.4338 402.309 17.4033 402.356 17.3718C402.385 17.3528 402.414 17.3334 402.443 17.3125C402.52 17.2567 402.609 17.201 402.708 17.1452C402.797 17.0895 402.896 17.0338 402.996 16.978C403.018 16.9669 403.062 16.9446 403.095 16.9223C403.117 16.9115 403.139 16.8996 403.162 16.8873C403.211 16.8613 403.264 16.8335 403.316 16.8108C403.416 16.755 403.537 16.6881 403.659 16.6324C403.681 16.6212 403.703 16.6101 403.736 16.599C403.802 16.5622 403.868 16.5303 403.936 16.4969C403.972 16.4796 404.008 16.4619 404.046 16.4429C404.052 16.4367 404.062 16.4339 404.073 16.4307C404.082 16.4283 404.092 16.4255 404.101 16.4206L404.466 16.2534C404.529 16.2262 404.592 16.1971 404.656 16.1677C404.749 16.1248 404.843 16.0812 404.942 16.0416L405.439 15.9078C405.76 15.8297 406.091 15.7517 406.434 15.6848L406.435 15.6846C406.601 15.6512 406.766 15.6178 406.932 15.5956C407.606 15.4841 408.28 15.3949 408.955 15.3503C409.43 15.3169 409.917 15.2946 410.403 15.2946C411.066 15.2946 411.719 15.328 412.382 15.3949C412.393 15.3949 412.401 15.3977 412.41 15.4005C412.418 15.4033 412.426 15.4061 412.438 15.4061C413.112 15.473 413.786 15.5733 414.45 15.7071L415.146 15.8743C415.577 15.9747 415.997 16.0861 416.429 16.2088L418.972 17.201C418.965 17.1869 418.956 17.1717 418.948 17.1557C418.93 17.1212 418.909 17.083 418.894 17.0449C418.878 17.0003 418.864 16.9558 418.85 16.9112C418.836 16.8666 418.822 16.822 418.806 16.7774C418.784 16.6882 418.762 16.599 418.75 16.5098C418.728 16.4095 418.717 16.3203 418.717 16.2311C418.706 16.1642 418.706 16.0973 418.706 16.0304C418.706 15.9859 418.709 15.9384 418.712 15.8911C418.714 15.8437 418.717 15.7963 418.717 15.7517C418.723 15.7294 418.726 15.7072 418.728 15.685C418.731 15.6626 418.734 15.6403 418.739 15.6179C418.745 15.5957 418.748 15.5706 418.75 15.5456C418.753 15.5205 418.756 15.4953 418.761 15.473C418.784 15.3838 418.806 15.2946 418.839 15.1943C418.856 15.1245 418.88 15.0615 418.906 14.9947C418.913 14.9762 418.92 14.9573 418.927 14.9379C418.949 14.8933 418.969 14.8516 418.988 14.8098C419.007 14.7679 419.027 14.7261 419.049 14.6814C419.093 14.6034 419.148 14.5254 419.204 14.4473C419.244 14.3752 419.304 14.3031 419.357 14.2398C419.361 14.2346 419.365 14.2294 419.369 14.2243C419.374 14.2191 419.378 14.2139 419.383 14.2087C419.443 14.1373 419.496 14.0749 419.569 14.0125C419.635 13.9456 419.701 13.8899 419.778 13.8341C419.827 13.7855 419.881 13.7486 419.937 13.7106C419.958 13.6964 419.979 13.6821 420 13.6669C420.102 13.5967 420.208 13.5323 420.314 13.4681C420.46 13.3794 420.606 13.291 420.74 13.1875C420.791 13.1511 420.837 13.1098 420.881 13.0701C420.905 13.049 420.927 13.0284 420.951 13.0092V12.998C421.002 12.9608 421.044 12.9138 421.086 12.8667C421.107 12.8431 421.127 12.8196 421.149 12.7973C421.205 12.7304 421.26 12.6524 421.315 12.5743L421.382 12.474C421.398 12.4517 421.412 12.4294 421.426 12.4071C421.44 12.3848 421.454 12.3625 421.47 12.3402C421.492 12.2957 421.511 12.2539 421.531 12.2122C421.55 12.1703 421.57 12.1285 421.592 12.0838C421.625 11.9947 421.658 11.9053 421.68 11.8162C421.713 11.7271 421.736 11.6379 421.758 11.5487C421.763 11.5042 421.766 11.4541 421.769 11.4041C421.771 11.3538 421.774 11.3035 421.78 11.2588C421.784 11.2095 421.782 11.1874 421.78 11.1664ZM506.212 23.7777C505.543 24.3947 504.453 25.0309 502.943 25.6672C502.932 25.9447 502.922 26.1572 502.914 26.3047C502.908 26.4236 502.905 26.5004 502.905 26.5349C502.905 26.6505 502.943 26.7469 503.019 26.8626L503.268 26.9205L504.664 26.9012L505.256 26.9205V32.454L505.18 35.8473C505.18 37.4476 505.543 38.6237 506.289 39.3949C507.035 40.1469 507.991 40.5325 509.195 40.5325C510.113 40.5325 510.973 40.3397 511.776 39.9348C512.599 39.5299 513.229 38.9708 513.688 38.2574L513.612 38.026C513.421 37.7754 513.153 37.5247 512.847 37.2933C512.787 37.3384 512.731 37.3776 512.679 37.4133C512.599 37.4691 512.53 37.5162 512.484 37.5633C512.101 37.8718 511.815 38.0453 511.642 38.1224C511.47 38.1803 511.222 38.2188 510.878 38.2188C510.514 38.2188 510.189 38.1417 509.903 38.0067C509.673 37.679 509.52 37.3512 509.444 36.9849C509.367 36.6378 509.348 35.7316 509.367 34.3049L509.405 26.9012L510.323 26.8627L510.667 26.882H511.662C511.967 26.9205 512.178 26.9205 512.273 26.9205C512.503 26.9205 512.809 26.9012 513.229 26.8433C513.325 26.4577 513.382 26.1107 513.382 25.8022C513.382 25.5323 513.325 25.2238 513.249 24.8767C512.723 24.8885 512.34 24.9002 512.1 24.9076C511.947 24.9123 511.852 24.9153 511.815 24.9153C510.686 24.9731 510.075 24.9924 510.017 24.9924L509.577 24.9731C509.558 24.7418 509.558 24.5876 509.558 24.5297L509.616 23.3921C509.616 23.2261 509.619 23.0351 509.623 22.8175V22.8165C509.629 22.5289 509.635 22.195 509.635 21.8111C509.635 21.4448 509.577 21.0977 509.463 20.7507H508.373C507.608 22.1389 506.901 23.1607 506.212 23.7777ZM468.679 30.0825C469.023 28.9834 469.31 28.2508 469.578 27.9037C470.285 26.8433 471.05 26.0143 471.853 25.4166C472.675 24.8189 473.402 24.4333 474.052 24.2405C474.912 23.9898 475.582 23.8741 476.117 23.8741C477.322 23.8741 478.297 23.9705 479.023 24.1633C479.769 24.3369 480.4 24.6068 480.897 24.9538C481.605 25.4551 482.178 25.9757 482.618 26.477C483.058 26.9976 483.402 27.6145 483.67 28.3086C483.956 29.0027 484.109 29.8511 484.148 30.8344L482.006 30.7958C481.413 30.7958 480.132 30.738 478.125 30.6223C477.858 30.6085 477.622 30.5947 477.417 30.5826H477.416C477.049 30.561 476.779 30.5452 476.595 30.5452C476.586 30.5452 476.57 30.5454 476.549 30.5457C476.525 30.5461 476.493 30.5467 476.453 30.5474H476.452C476.177 30.5525 475.536 30.5645 474.53 30.5645H472.867C472.863 30.6034 472.859 30.6408 472.855 30.6767L472.855 30.6783C472.841 30.8187 472.828 30.9354 472.828 31.0272C472.828 31.7213 472.924 32.4347 473.077 33.2059C473.249 33.9578 473.498 34.6134 473.823 35.1918C474.167 35.7702 474.568 36.2522 475.065 36.6571C475.563 37.0813 476.079 37.3705 476.595 37.5633L477.704 37.9296C478.698 37.9296 479.348 37.8911 479.693 37.8332C480.304 37.6982 480.84 37.544 481.299 37.3512C481.777 37.1391 482.331 36.7921 483 36.3101C483.459 36.657 483.842 36.9464 484.167 37.2355C483.039 38.4695 481.853 39.3949 480.649 39.9541C479.444 40.5132 478.087 40.7831 476.595 40.7831C475.582 40.7831 474.76 40.706 474.109 40.5132C473.268 40.2818 472.484 39.9348 471.796 39.4528C471.108 38.9708 470.515 38.3731 470.018 37.679C469.521 36.9656 469.138 36.2329 468.89 35.481C468.584 34.4977 468.412 33.7072 468.412 33.1288C468.412 31.9912 468.507 30.9886 468.679 30.0825ZM479.846 29.2534C479.826 28.5207 479.693 27.8459 479.425 27.1711C479.157 26.5155 478.737 26.0143 478.163 25.6479C477.609 25.2816 477.035 25.0888 476.461 25.0888C475.601 25.0888 474.836 25.4744 474.129 26.2263C473.44 26.9976 473.058 28.0194 472.962 29.3305L477.341 29.3498C477.628 29.3498 478.029 29.3305 478.526 29.292C478.909 29.2534 479.176 29.2341 479.329 29.2341C479.444 29.2341 479.616 29.2341 479.846 29.2534ZM487.188 34.9219C487.57 34.8447 487.857 34.8061 488.029 34.8061C488.125 34.8061 488.259 34.8061 488.431 34.8255L488.603 35.0183C489.31 36.2522 489.75 36.9849 489.979 37.2548C490.419 37.7754 490.859 38.1995 491.299 38.5273C491.585 38.7201 492.044 38.9515 492.675 39.1636C493.096 39.3178 493.555 39.3949 494.033 39.3949C494.836 39.3949 495.524 39.1443 496.098 38.6237C496.671 38.0839 496.958 37.5247 496.958 36.9077C496.958 36.5028 496.843 36.1558 496.633 35.8666C496.423 35.5774 495.983 35.2882 495.333 34.999C495.008 34.864 494.205 34.6326 492.905 34.3049C491.624 33.9771 490.859 33.765 490.591 33.6686C489.979 33.4373 489.444 33.1095 488.985 32.7046C488.507 32.2804 488.163 31.8177 487.914 31.2971C487.589 30.5645 487.417 29.9282 487.417 29.4076C487.417 28.4243 487.57 27.6338 487.838 26.9976C488.125 26.3806 488.526 25.8215 489.042 25.3395C489.406 24.9731 489.96 24.6454 490.706 24.3562C491.452 24.067 492.274 23.9127 493.115 23.9127C494.339 23.9127 495.409 23.9899 496.327 24.1634C497.245 24.3369 498.029 24.5875 498.66 24.9153C498.748 25.1832 498.837 25.7984 498.971 26.7304L499.004 26.959C499.138 28.0387 499.214 28.675 499.214 28.8678C499.214 28.9642 499.195 29.0606 499.157 29.157C498.813 29.2534 498.545 29.3112 498.316 29.3112C498.232 29.3112 498.108 29.301 497.95 29.288L497.949 29.2879C497.891 29.2831 497.828 29.2779 497.761 29.2727C497.671 29.1355 497.556 28.926 497.417 28.6728L497.363 28.5725C497.343 28.5367 497.323 28.5002 497.302 28.4629C496.691 27.3061 496.06 26.4963 495.409 26.0336C494.759 25.5516 494.033 25.3202 493.172 25.3202C492.293 25.3202 491.547 25.5901 490.954 26.0914C490.515 26.477 490.304 26.9783 490.304 27.6339C490.304 28.058 490.534 28.4822 490.993 28.9257C491.432 29.3691 492.216 29.7162 493.325 29.9475C495.008 30.3139 496.251 30.6995 497.035 31.0658C498.182 31.6056 499.004 32.2612 499.463 32.9938C499.922 33.7265 500.17 34.5748 500.17 35.5389C500.17 37.0427 499.597 38.296 498.469 39.2985C497.36 40.2818 495.735 40.7831 493.574 40.7831C493.306 40.7831 492.561 40.7253 491.375 40.5903C490.84 40.5325 490.209 40.3975 489.482 40.2047C489.291 40.1469 488.832 39.9734 488.067 39.6456C487.933 39.5684 487.838 39.4721 487.761 39.3757C487.723 39.26 487.628 38.7201 487.513 37.7561L487.499 37.6389M446.098 39.3564C446.423 39.2021 446.729 39.1057 447.016 39.0479C447.724 38.9322 448.125 38.8358 448.24 38.7587C448.431 38.643 448.565 38.4887 448.622 38.3345C448.699 38.0646 448.737 37.5054 448.737 36.6185V34.9411L448.756 33.5722L448.699 31.5285V30.3138C448.699 29.504 448.641 28.8292 448.508 28.3279C448.469 28.1351 448.297 27.9423 448.03 27.7495C447.666 27.4796 447.074 27.2289 446.213 26.9783L446.194 26.0528L446.197 26.0521C446.349 26.0138 446.501 25.9756 446.634 25.9564C446.753 25.9392 447.175 25.8304 447.9 25.6435L448.182 25.5708C448.89 25.3202 449.349 25.1274 449.54 25.031C449.572 25.0149 449.607 24.9956 449.648 24.9729C449.706 24.941 449.776 24.9025 449.865 24.8574C449.995 24.7431 450.138 24.6425 450.295 24.5324C450.324 24.5125 450.352 24.4924 450.381 24.4718C450.764 24.2019 451.223 23.7199 451.758 23.0644L452.771 22.9872L452.733 25.1659C452.714 25.378 452.714 25.5515 452.714 25.6865C452.714 25.8022 452.714 26.0914 452.733 26.5734C453.804 25.6479 454.76 25.0117 455.639 24.6453C456.768 24.1633 457.857 23.9319 458.871 23.9319C460.075 23.9319 461.146 24.2404 462.045 24.8381C462.963 25.4358 463.555 26.1299 463.823 26.9011C464.11 27.6916 464.243 29.2919 464.243 31.6634L464.167 37.9874C464.167 38.2766 464.224 38.5273 464.32 38.7201C464.454 38.8165 464.817 38.9129 465.391 39.0093L466.328 39.1828C466.442 39.3563 466.5 39.5491 466.5 39.7998C466.5 39.954 466.5 40.1661 466.48 40.436L462.714 40.1661L461.605 40.2046H460.725L458.182 40.3974H457.532C457.513 40.2239 457.513 40.1082 457.513 40.0118C457.513 39.7981 457.529 39.568 457.547 39.3214L457.551 39.2599C457.688 39.2293 458.005 39.1865 458.484 39.1219L458.486 39.1217C458.61 39.105 458.745 39.0868 458.89 39.0671C459.04 39.0519 459.202 39.0129 459.385 38.9688C459.435 38.9569 459.487 38.9445 459.54 38.9321C459.788 38.8357 459.941 38.72 459.98 38.6236C460.075 38.3923 460.133 37.9874 460.133 37.3704C460.133 36.2714 460.113 35.4424 460.094 34.8639L460.114 32.6274C460.114 29.8896 459.961 28.1929 459.616 27.5374C459.119 26.5541 458.393 26.0721 457.418 26.0721C456.71 26.0721 455.964 26.2649 455.2 26.6312C454.416 26.9975 453.632 27.5567 452.81 28.3086L452.771 28.6364L452.81 29.851L452.79 31.1428L452.867 34.247L452.829 34.729C452.829 36.8305 452.905 38.0259 453.077 38.2959C453.249 38.5658 453.88 38.855 454.989 39.1828C455.028 39.3948 455.047 39.5684 455.047 39.6648C455.047 39.8065 454.998 40.0135 454.931 40.3005L454.913 40.3781C454.511 40.3975 454.167 40.3975 453.9 40.3975C453.632 40.3975 453.211 40.3589 452.638 40.2818L450.592 40.2433C449.559 40.2433 448.087 40.2818 446.156 40.3782C446.098 40.2433 446.079 40.1083 446.079 39.9733C446.079 39.8768 446.079 39.6648 446.098 39.3564Z" fill="black"/>
</g>
<g clip-path="url(#clip2_3_20500)">
<path d="M643.6 43.2708V27.5158H663.053V26.5944H643.6V12.2214H664.283V11.3H642.688V44.1922H664.465V43.2708H643.6ZM682.005 20.5135L673.941 31.2472L666.06 20.5135H664.875L673.395 31.9383L664.055 44.1922H665.149L673.941 32.6293L682.78 44.1922H683.918L674.534 31.9383L683.098 20.5135H682.005ZM686.652 52.3V37.5585H686.743C687.29 39.7083 688.368 41.4358 689.978 42.7411C691.587 44.0463 693.638 44.6989 696.128 44.6989C697.738 44.6989 699.165 44.3688 700.411 43.7085C701.656 43.0482 702.696 42.1499 703.531 41.0135C704.367 39.8772 705.004 38.5566 705.445 37.0517C705.885 35.5469 706.105 33.9652 706.105 32.3068C706.105 30.5255 705.878 28.8825 705.422 27.3776C704.966 25.8727 704.306 24.5675 703.44 23.4618C702.575 22.3562 701.527 21.4963 700.297 20.8821C699.067 20.2678 697.677 19.9607 696.128 19.9607C694.944 19.9607 693.843 20.1373 692.825 20.4905C691.808 20.8437 690.904 21.3427 690.114 21.9877C689.325 22.6326 688.641 23.3927 688.064 24.268C687.487 25.1433 687.047 26.103 686.743 27.1472H686.652V20.5135H685.741V52.3H686.652ZM696.128 43.8236C693.273 43.8236 690.98 42.8332 689.249 40.8523C687.518 38.8714 686.652 36.0229 686.652 32.3068C686.652 30.7712 686.865 29.3124 687.29 27.9304C687.715 26.5484 688.33 25.3353 689.135 24.2911C689.94 23.2469 690.934 22.4177 692.119 21.8034C693.304 21.1892 694.64 20.8821 696.128 20.8821C697.647 20.8821 698.975 21.1892 700.114 21.8034C701.253 22.4177 702.195 23.2545 702.939 24.3141C703.683 25.3736 704.245 26.5867 704.625 27.9534C705.004 29.3201 705.194 30.7712 705.194 32.3068C705.194 33.6888 705.02 35.0632 704.67 36.4298C704.321 37.7965 703.782 39.025 703.053 40.1152C702.324 41.2055 701.39 42.0961 700.251 42.7871C699.112 43.4781 697.738 43.8236 696.128 43.8236ZM711.117 44.1922V30.7866C711.117 29.4967 711.299 28.2375 711.663 27.009C712.028 25.7806 712.59 24.698 713.349 23.7613C714.108 22.8246 715.073 22.0875 716.242 21.55C717.411 21.0126 718.801 20.7899 720.411 20.8821V19.9607C719.013 19.93 717.791 20.0836 716.743 20.4214C715.695 20.7592 714.792 21.2199 714.032 21.8034C713.273 22.3869 712.666 23.0703 712.21 23.8534C711.755 24.6366 711.42 25.4735 711.208 26.3641H711.117V20.5135H710.206V44.1922H711.117ZM721.549 32.5371H741.14C741.2 30.9094 741.041 29.3431 740.661 27.8383C740.282 26.3334 739.674 24.9974 738.839 23.8304C738.004 22.6633 736.925 21.7266 735.604 21.0203C734.283 20.3139 732.711 19.9607 730.889 19.9607C729.583 19.9607 728.307 20.2371 727.062 20.7899C725.817 21.3427 724.723 22.1489 723.782 23.2085C722.84 24.268 722.081 25.5656 721.504 27.1012C720.927 28.6368 720.638 30.3873 720.638 32.3529C720.638 34.1034 720.836 35.7388 721.231 37.259C721.625 38.7793 722.233 40.0999 723.053 41.2208C723.873 42.3418 724.928 43.2094 726.219 43.8236C727.51 44.4379 729.067 44.7296 730.889 44.6989C733.562 44.6989 735.809 43.9388 737.632 42.4186C739.454 40.8984 740.532 38.7562 740.866 35.9922H739.955C739.56 38.6027 738.55 40.5605 736.925 41.8658C735.3 43.171 733.258 43.8236 730.798 43.8236C729.127 43.8236 727.715 43.5319 726.561 42.9484C725.407 42.3648 724.465 41.5663 723.736 40.5529C723.007 39.5394 722.468 38.3493 722.119 36.9826C721.77 35.616 721.58 34.1341 721.549 32.5371ZM740.228 31.6158H721.549C721.641 29.9573 721.944 28.4678 722.461 27.1472C722.977 25.8266 723.653 24.698 724.488 23.7613C725.323 22.8246 726.295 22.1105 727.404 21.6192C728.512 21.1278 729.704 20.8821 730.98 20.8821C732.499 20.8821 733.835 21.1662 734.989 21.7343C736.143 22.3025 737.108 23.0779 737.882 24.0607C738.657 25.0435 739.241 26.1875 739.636 27.4927C740.031 28.798 740.228 30.1723 740.228 31.6158ZM760.046 27.5158H760.957C760.957 24.8746 760.198 22.9551 758.679 21.7574C757.161 20.5596 755.095 19.9607 752.483 19.9607C751.026 19.9607 749.796 20.145 748.793 20.5135C747.791 20.8821 746.971 21.3581 746.333 21.9416C745.695 22.5251 745.24 23.1701 744.966 23.8765C744.693 24.5828 744.556 25.2585 744.556 25.9034C744.556 27.1933 744.784 28.2221 745.24 28.9899C745.695 29.7577 746.409 30.3566 747.381 30.7866C748.049 31.0937 748.808 31.3701 749.659 31.6158C750.509 31.8615 751.496 32.1225 752.62 32.3989C753.622 32.6446 754.61 32.8903 755.581 33.136C756.553 33.3817 757.411 33.7118 758.155 34.1265C758.9 34.5411 759.507 35.0708 759.978 35.7158C760.449 36.3607 760.684 37.2053 760.684 38.2495C760.684 39.263 760.449 40.1229 759.978 40.8293C759.507 41.5356 758.907 42.1115 758.178 42.5568C757.449 43.0021 756.637 43.3246 755.741 43.5242C754.845 43.7238 753.972 43.8236 753.121 43.8236C750.357 43.8236 748.239 43.2017 746.766 41.9579C745.293 40.7141 744.556 38.7562 744.556 36.0843H743.645C743.645 39.0634 744.442 41.2439 746.037 42.6259C747.632 44.0079 749.993 44.6989 753.121 44.6989C754.124 44.6989 755.133 44.5838 756.151 44.3534C757.168 44.1231 758.08 43.7469 758.884 43.2248C759.689 42.7027 760.342 42.027 760.843 41.1978C761.345 40.3686 761.595 39.3551 761.595 38.1574C761.595 37.021 761.375 36.0997 760.934 35.3933C760.494 34.6869 759.917 34.1034 759.203 33.6427C758.49 33.1821 757.685 32.8212 756.789 32.5602C755.893 32.2991 754.989 32.0457 754.078 31.8C752.802 31.4622 751.686 31.1705 750.729 30.9248C749.773 30.6791 748.884 30.3873 748.064 30.0495C747.275 29.7117 746.644 29.228 746.174 28.5984C745.703 27.9688 745.468 27.0705 745.468 25.9034C745.468 25.6884 745.528 25.3045 745.65 24.7517C745.771 24.1989 746.06 23.6384 746.515 23.0703C746.971 22.5021 747.669 21.9954 748.611 21.55C749.553 21.1047 750.843 20.8821 752.483 20.8821C753.607 20.8821 754.632 21.0049 755.559 21.2506C756.485 21.4963 757.282 21.8879 757.95 22.4253C758.619 22.9628 759.135 23.6461 759.499 24.4753C759.864 25.3045 760.046 26.318 760.046 27.5158ZM781.139 27.5158H782.051C782.051 24.8746 781.291 22.9551 779.773 21.7574C778.254 20.5596 776.189 19.9607 773.577 19.9607C772.119 19.9607 770.889 20.145 769.887 20.5135C768.884 20.8821 768.064 21.3581 767.427 21.9416C766.789 22.5251 766.333 23.1701 766.06 23.8765C765.786 24.5828 765.65 25.2585 765.65 25.9034C765.65 27.1933 765.878 28.2221 766.333 28.9899C766.789 29.7577 767.502 30.3566 768.474 30.7866C769.143 31.0937 769.902 31.3701 770.752 31.6158C771.603 31.8615 772.59 32.1225 773.714 32.3989C774.716 32.6446 775.703 32.8903 776.675 33.136C777.647 33.3817 778.505 33.7118 779.249 34.1265C779.993 34.5411 780.6 35.0708 781.071 35.7158C781.542 36.3607 781.777 37.2053 781.777 38.2495C781.777 39.263 781.542 40.1229 781.071 40.8293C780.6 41.5356 780.001 42.1115 779.272 42.5568C778.543 43.0021 777.73 43.3246 776.834 43.5242C775.938 43.7238 775.065 43.8236 774.215 43.8236C771.451 43.8236 769.332 43.2017 767.859 41.9579C766.386 40.7141 765.65 38.7562 765.65 36.0843H764.739C764.739 39.0634 765.536 41.2439 767.13 42.6259C768.725 44.0079 771.086 44.6989 774.215 44.6989C775.217 44.6989 776.227 44.5838 777.244 44.3534C778.262 44.1231 779.173 43.7469 779.978 43.2248C780.783 42.7027 781.436 42.027 781.937 41.1978C782.438 40.3686 782.688 39.3551 782.688 38.1574C782.688 37.021 782.468 36.0997 782.028 35.3933C781.587 34.6869 781.01 34.1034 780.297 33.6427C779.583 33.1821 778.778 32.8212 777.882 32.5602C776.986 32.2991 776.083 32.0457 775.171 31.8C773.896 31.4622 772.78 31.1705 771.823 30.9248C770.866 30.6791 769.978 30.3873 769.158 30.0495C768.368 29.7117 767.738 29.228 767.267 28.5984C766.796 27.9688 766.561 27.0705 766.561 25.9034C766.561 25.6884 766.622 25.3045 766.743 24.7517C766.865 24.1989 767.153 23.6384 767.609 23.0703C768.064 22.5021 768.763 21.9954 769.704 21.55C770.646 21.1047 771.937 20.8821 773.577 20.8821C774.701 20.8821 775.726 21.0049 776.652 21.2506C777.578 21.4963 778.376 21.8879 779.044 22.4253C779.712 22.9628 780.228 23.6461 780.593 24.4753C780.957 25.3045 781.139 26.318 781.139 27.5158Z" fill="black"/>
</g>
<defs>
<clipPath id="clip0_3_20500">
<rect width="53" height="42" fill="white" transform="translate(212 10.5)"/>
</clipPath>
<clipPath id="clip1_3_20500">
<rect width="121" height="44" fill="white" transform="translate(393 9.5)"/>
</clipPath>
<clipPath id="clip2_3_20500">
<rect width="141" height="42" fill="white" transform="translate(642 10.5)"/>
</clipPath>
</defs>
</svg>
