<svg width="178" height="40" viewBox="0 0 178 40" fill="none" xmlns="http://www.w3.org/2000/svg">
<g clip-path="url(#clip0_10_65)">
<path d="M32.4747 11.6342C32.6775 9.16601 33.0584 6.8343 33.1409 6.35333C33.1408 6.31148 33.1093 6.28001 33.0675 6.27991C32.5865 6.36233 30.2548 6.74329 27.7866 6.94604C5.74253 9.54542 8.68072 29.1144 8.68072 29.1144L8.71249 29.2714C7.51315 30.6386 5.87617 32.6951 5.87617 32.6951L6.29569 33.1146L6.71521 33.5341C6.71521 33.5341 8.76128 31.9076 10.1389 30.6978L10.3063 30.7191C10.3063 30.7401 29.8754 33.6783 32.4747 11.6342ZM15.7651 26.9606L12.1094 23.9904L26.7321 10.2816L26.9606 10.2816L30.1593 12.3379L15.7651 26.9606Z" fill="black"/>
</g>
<path d="M50.5583 26.7103V13.6194H55.7998C56.7629 13.6194 57.5661 13.7621 58.2096 14.0476C58.8531 14.3331 59.3367 14.7294 59.6606 15.2365C59.9845 15.7394 60.1464 16.3189 60.1464 16.9752C60.1464 17.4865 60.0441 17.9361 59.8396 18.3239C59.635 18.7074 59.3538 19.0228 58.9958 19.2699C58.6421 19.5128 58.2373 19.6854 57.7813 19.7877V19.9155C58.2799 19.9368 58.7465 20.0775 59.1812 20.3374C59.6201 20.5973 59.9759 20.9617 60.2487 21.4304C60.5214 21.8949 60.6577 22.4489 60.6577 23.0924C60.6577 23.787 60.4852 24.407 60.14 24.9525C59.7991 25.4936 59.2941 25.9219 58.6251 26.2373C57.956 26.5526 57.1315 26.7103 56.1514 26.7103H50.5583ZM53.3261 24.4475H55.5825C56.3538 24.4475 56.9163 24.3005 57.27 24.0064C57.6237 23.7081 57.8005 23.3118 57.8005 22.8175C57.8005 22.4553 57.7131 22.1357 57.5384 21.8587C57.3637 21.5817 57.1144 21.3644 56.7906 21.2067C56.471 21.049 56.0896 20.9702 55.6464 20.9702H53.3261V24.4475ZM53.3261 19.0973H55.3779C55.7572 19.0973 56.0938 19.0313 56.3879 18.8992C56.6862 18.7628 56.9205 18.5711 57.091 18.3239C57.2657 18.0767 57.3531 17.7806 57.3531 17.4354C57.3531 16.9624 57.1847 16.581 56.8481 16.2912C56.5157 16.0015 56.0427 15.8566 55.4291 15.8566H53.3261V19.0973ZM62.4076 26.7103V16.8921H65.0475V18.6052H65.1498C65.3287 17.9958 65.6292 17.5355 66.051 17.2245C66.4729 16.9091 66.9587 16.7515 67.5084 16.7515C67.6448 16.7515 67.7918 16.76 67.9495 16.777C68.1071 16.7941 68.2456 16.8175 68.365 16.8473V19.2635C68.2371 19.2252 68.0603 19.1911 67.8344 19.1613C67.6086 19.1314 67.4019 19.1165 67.2144 19.1165C66.8138 19.1165 66.4559 19.2039 66.1405 19.3786C65.8294 19.549 65.5823 19.7877 65.399 20.0945C65.2201 20.4013 65.1306 20.755 65.1306 21.1556V26.7103H62.4076ZM69.7728 26.7103V16.8921H72.4958V26.7103H69.7728ZM71.1407 15.6265C70.7359 15.6265 70.3886 15.4922 70.0988 15.2238C69.8133 14.951 69.6705 14.625 69.6705 14.2458C69.6705 13.8708 69.8133 13.549 70.0988 13.2806C70.3886 13.0079 70.7359 12.8715 71.1407 12.8715C71.5455 12.8715 71.8907 13.0079 72.1762 13.2806C72.466 13.549 72.6109 13.8708 72.6109 14.2458C72.6109 14.625 72.466 14.951 72.1762 15.2238C71.8907 15.4922 71.5455 15.6265 71.1407 15.6265ZM78.295 26.8701C77.5493 26.8701 76.8738 26.6783 76.2687 26.2948C75.6679 25.907 75.1906 25.3381 74.8369 24.5881C74.4875 23.8338 74.3128 22.9091 74.3128 21.814C74.3128 20.689 74.4939 19.7536 74.8561 19.0079C75.2183 18.2579 75.6998 17.6975 76.3007 17.3267C76.9058 16.9517 77.5684 16.7642 78.2886 16.7642C78.8383 16.7642 79.2964 16.858 79.6629 17.0455C80.0336 17.2287 80.3319 17.4588 80.5578 17.7358C80.7879 18.0086 80.9626 18.277 81.0819 18.5412H81.165V13.6194H83.8816V26.7103H81.197V25.1378H81.0819C80.9541 25.4106 80.773 25.6811 80.5386 25.9496C80.3085 26.2138 80.0081 26.4333 79.6373 26.608C79.2709 26.7827 78.8234 26.8701 78.295 26.8701ZM79.1579 24.7032C79.5968 24.7032 79.9676 24.5838 80.2701 24.3452C80.577 24.1023 80.8113 23.7635 80.9733 23.3289C81.1395 22.8942 81.2226 22.385 81.2226 21.8012C81.2226 21.2174 81.1416 20.7103 80.9797 20.2799C80.8177 19.8495 80.5834 19.5171 80.2765 19.2827C79.9697 19.0483 79.5968 18.9311 79.1579 18.9311C78.7105 18.9311 78.3334 19.0526 78.0265 19.2955C77.7197 19.5384 77.4875 19.875 77.3298 20.3054C77.1721 20.7358 77.0933 21.2344 77.0933 21.8012C77.0933 22.3722 77.1721 22.8772 77.3298 23.3161C77.4917 23.7507 77.724 24.0917 78.0265 24.3388C78.3334 24.5817 78.7105 24.7032 79.1579 24.7032ZM90.5438 30.5966C89.6617 30.5966 88.9053 30.4752 88.2746 30.2323C87.6482 29.9936 87.1496 29.6677 86.7788 29.2543C86.4081 28.8409 86.1673 28.3765 86.0565 27.8608L88.575 27.5221C88.6517 27.7181 88.7732 27.9013 88.9394 28.0718C89.1055 28.2422 89.325 28.3786 89.5977 28.4809C89.8747 28.5874 90.2114 28.6407 90.6077 28.6407C91.2 28.6407 91.6879 28.4958 92.0715 28.206C92.4592 27.9205 92.6531 27.4411 92.6531 26.7678V24.9716H92.5381C92.4188 25.2444 92.2398 25.5022 92.0011 25.7451C91.7625 25.988 91.4557 26.1861 91.0807 26.3395C90.7057 26.4929 90.2582 26.5696 89.7384 26.5696C89.0011 26.5696 88.33 26.3992 87.7249 26.0583C87.124 25.7131 86.6446 25.1868 86.2867 24.4794C85.933 23.7678 85.7561 22.8686 85.7561 21.782C85.7561 20.6698 85.9372 19.7408 86.2994 18.9951C86.6617 18.2493 87.1432 17.6911 87.744 17.3204C88.3492 16.9496 89.0118 16.7642 89.732 16.7642C90.2817 16.7642 90.7419 16.858 91.1126 17.0455C91.4834 17.2287 91.7817 17.4588 92.0075 17.7358C92.2376 18.0086 92.4145 18.277 92.5381 18.5412H92.6403V16.8921H95.3442V26.8061C95.3442 27.6414 95.1396 28.3402 94.7305 28.9027C94.3215 29.4652 93.7547 29.8871 93.0303 30.1684C92.3101 30.4539 91.4813 30.5966 90.5438 30.5966ZM90.6013 24.5242C91.0402 24.5242 91.4109 24.4155 91.7135 24.1982C92.0203 23.9766 92.2547 23.6613 92.4166 23.2522C92.5828 22.8388 92.6659 22.3445 92.6659 21.7692C92.6659 21.1939 92.5849 20.6954 92.423 20.2735C92.2611 19.8473 92.0267 19.5171 91.7199 19.2827C91.4131 19.0483 91.0402 18.9311 90.6013 18.9311C90.1538 18.9311 89.7767 19.0526 89.4699 19.2955C89.1631 19.5341 88.9308 19.8665 88.7732 20.2927C88.6155 20.7188 88.5367 21.211 88.5367 21.7692C88.5367 22.336 88.6155 22.826 88.7732 23.2394C88.9351 23.6485 89.1673 23.9659 89.4699 24.1918C89.7767 24.4134 90.1538 24.5242 90.6013 24.5242ZM101.986 26.902C100.976 26.902 100.106 26.6975 99.3776 26.2884C98.6531 25.875 98.0949 25.2912 97.7028 24.537C97.3108 23.7784 97.1148 22.8814 97.1148 21.8459C97.1148 20.836 97.3108 19.9496 97.7028 19.1868C98.0949 18.424 98.6467 17.8296 99.3584 17.4034C100.074 16.9773 100.914 16.7642 101.877 16.7642C102.525 16.7642 103.128 16.8686 103.686 17.0775C104.248 17.282 104.738 17.5909 105.156 18.0043C105.578 18.4177 105.906 18.9375 106.14 19.564C106.375 20.1861 106.492 20.9148 106.492 21.75V22.4979H98.2014V20.8104H103.929C103.929 20.4184 103.843 20.0711 103.673 19.7685C103.503 19.4659 103.266 19.2294 102.964 19.059C102.665 18.8843 102.318 18.7969 101.922 18.7969C101.508 18.7969 101.142 18.8928 100.822 19.0846C100.507 19.2721 100.26 19.5256 100.081 19.8452C99.9017 20.1605 99.8101 20.5121 99.8058 20.8999V22.5043C99.8058 22.9901 99.8953 23.4098 100.074 23.7635C100.258 24.1172 100.515 24.39 100.848 24.5817C101.18 24.7735 101.574 24.8694 102.03 24.8694C102.333 24.8694 102.61 24.8267 102.861 24.7415C103.113 24.6563 103.328 24.5284 103.507 24.358C103.686 24.1875 103.822 23.9787 103.916 23.7316L106.434 23.8978C106.307 24.5029 106.044 25.0313 105.648 25.483C105.256 25.9304 104.749 26.2799 104.127 26.5313C103.509 26.7784 102.795 26.902 101.986 26.902ZM114.386 20.2543V22.4148H108.416V20.2543H114.386ZM116.758 13.6194H120.171L123.776 22.4148H123.929L127.535 13.6194H130.948V26.7103H128.263V18.1897H128.155L124.767 26.6463H122.939L119.551 18.1577H119.442V26.7103H116.758V13.6194ZM137.613 26.902C136.62 26.902 135.762 26.6911 135.037 26.2692C134.317 25.8431 133.761 25.2507 133.369 24.4922C132.977 23.7294 132.781 22.8452 132.781 21.8395C132.781 20.8253 132.977 19.939 133.369 19.1804C133.761 18.4177 134.317 17.8253 135.037 17.4034C135.762 16.9773 136.62 16.7642 137.613 16.7642C138.606 16.7642 139.463 16.9773 140.183 17.4034C140.907 17.8253 141.465 18.4177 141.857 19.1804C142.25 19.939 142.446 20.8253 142.446 21.8395C142.446 22.8452 142.25 23.7294 141.857 24.4922C141.465 25.2507 140.907 25.8431 140.183 26.2692C139.463 26.6911 138.606 26.902 137.613 26.902ZM137.626 24.7927C138.078 24.7927 138.455 24.6648 138.757 24.4091C139.06 24.1492 139.288 23.7955 139.441 23.3481C139.599 22.9006 139.678 22.3914 139.678 21.8204C139.678 21.2493 139.599 20.7401 139.441 20.2927C139.288 19.8452 139.06 19.4915 138.757 19.2316C138.455 18.9716 138.078 18.8417 137.626 18.8417C137.17 18.8417 136.786 18.9716 136.475 19.2316C136.169 19.4915 135.936 19.8452 135.779 20.2927C135.625 20.7401 135.549 21.2493 135.549 21.8204C135.549 22.3914 135.625 22.9006 135.779 23.3481C135.936 23.7955 136.169 24.1492 136.475 24.4091C136.786 24.6648 137.17 24.7927 137.626 24.7927ZM146.939 21.0341V26.7103H144.216V16.8921H146.811V18.6243H146.926C147.144 18.0533 147.508 17.6016 148.019 17.2692C148.531 16.9326 149.151 16.7642 149.88 16.7642C150.561 16.7642 151.156 16.9134 151.663 17.2117C152.17 17.51 152.564 17.9361 152.845 18.4901C153.127 19.0398 153.267 19.6961 153.267 20.4588V26.7103H150.544V20.9446C150.549 20.3438 150.395 19.875 150.084 19.5384C149.773 19.1975 149.345 19.027 148.799 19.027C148.433 19.027 148.109 19.1059 147.828 19.2635C147.551 19.4212 147.333 19.6513 147.176 19.9539C147.022 20.2522 146.943 20.6123 146.939 21.0341ZM159.837 30.5966C158.955 30.5966 158.198 30.4752 157.568 30.2323C156.941 29.9936 156.443 29.6677 156.072 29.2543C155.701 28.8409 155.46 28.3765 155.35 27.8608L157.868 27.5221C157.945 27.7181 158.066 27.9013 158.232 28.0718C158.399 28.2422 158.618 28.3786 158.891 28.4809C159.168 28.5874 159.504 28.6407 159.901 28.6407C160.493 28.6407 160.981 28.4958 161.364 28.206C161.752 27.9205 161.946 27.4411 161.946 26.7678V24.9716H161.831C161.712 25.2444 161.533 25.5022 161.294 25.7451C161.055 25.988 160.749 26.1861 160.374 26.3395C159.999 26.4929 159.551 26.5696 159.031 26.5696C158.294 26.5696 157.623 26.3992 157.018 26.0583C156.417 25.7131 155.938 25.1868 155.58 24.4794C155.226 23.7678 155.049 22.8686 155.049 21.782C155.049 20.6698 155.23 19.7408 155.592 18.9951C155.955 18.2493 156.436 17.6911 157.037 17.3204C157.642 16.9496 158.305 16.7642 159.025 16.7642C159.575 16.7642 160.035 16.858 160.406 17.0455C160.776 17.2287 161.075 17.4588 161.301 17.7358C161.531 18.0086 161.707 18.277 161.831 18.5412H161.933V16.8921H164.637V26.8061C164.637 27.6414 164.433 28.3402 164.024 28.9027C163.614 29.4652 163.048 29.8871 162.323 30.1684C161.603 30.4539 160.774 30.5966 159.837 30.5966ZM159.894 24.5242C160.333 24.5242 160.704 24.4155 161.006 24.1982C161.313 23.9766 161.548 23.6613 161.71 23.2522C161.876 22.8388 161.959 22.3445 161.959 21.7692C161.959 21.1939 161.878 20.6954 161.716 20.2735C161.554 19.8473 161.32 19.5171 161.013 19.2827C160.706 19.0483 160.333 18.9311 159.894 18.9311C159.447 18.9311 159.07 19.0526 158.763 19.2955C158.456 19.5341 158.224 19.8665 158.066 20.2927C157.908 20.7188 157.83 21.211 157.83 21.7692C157.83 22.336 157.908 22.826 158.066 23.2394C158.228 23.6485 158.46 23.9659 158.763 24.1918C159.07 24.4134 159.447 24.5242 159.894 24.5242ZM171.24 26.902C170.247 26.902 169.389 26.6911 168.664 26.2692C167.944 25.8431 167.388 25.2507 166.996 24.4922C166.604 23.7294 166.408 22.8452 166.408 21.8395C166.408 20.8253 166.604 19.939 166.996 19.1804C167.388 18.4177 167.944 17.8253 168.664 17.4034C169.389 16.9773 170.247 16.7642 171.24 16.7642C172.233 16.7642 173.09 16.9773 173.81 17.4034C174.534 17.8253 175.092 18.4177 175.484 19.1804C175.876 19.939 176.073 20.8253 176.073 21.8395C176.073 22.8452 175.876 23.7294 175.484 24.4922C175.092 25.2507 174.534 25.8431 173.81 26.2692C173.09 26.6911 172.233 26.902 171.24 26.902ZM171.253 24.7927C171.705 24.7927 172.082 24.6648 172.384 24.4091C172.687 24.1492 172.915 23.7955 173.068 23.3481C173.226 22.9006 173.305 22.3914 173.305 21.8204C173.305 21.2493 173.226 20.7401 173.068 20.2927C172.915 19.8452 172.687 19.4915 172.384 19.2316C172.082 18.9716 171.705 18.8417 171.253 18.8417C170.797 18.8417 170.413 18.9716 170.102 19.2316C169.796 19.4915 169.563 19.8452 169.406 20.2927C169.252 20.7401 169.176 21.2493 169.176 21.8204C169.176 22.3914 169.252 22.9006 169.406 23.3481C169.563 23.7955 169.796 24.1492 170.102 24.4091C170.413 24.6648 170.797 24.7927 171.253 24.7927Z" fill="black"/>
<defs>
<clipPath id="clip0_10_65">
<rect width="17.8214" height="37.9276" fill="white" transform="translate(26.8188) rotate(45)"/>
</clipPath>
</defs>
</svg>
