<svg width="20" height="20" viewBox="0 0 20 20" fill="none" xmlns="http://www.w3.org/2000/svg">
<path d="M2.69499 14.763L1.43299 17.917C1.39662 18.0079 1.38772 18.1074 1.40739 18.2033C1.42705 18.2992 1.47443 18.3872 1.54363 18.4564C1.61284 18.5256 1.70084 18.573 1.79671 18.5926C1.89259 18.6123 1.99213 18.6034 2.08299 18.567L5.23799 17.305C5.74096 17.104 6.19786 16.8029 6.58099 16.42L17.5 5.50001C17.8978 5.10219 18.1213 4.56262 18.1213 4.00001C18.1213 3.4374 17.8978 2.89784 17.5 2.50001C17.1022 2.10219 16.5626 1.87869 16 1.87869C15.4374 1.87869 14.8978 2.10219 14.5 2.50001L3.57999 13.42C3.1971 13.8031 2.89602 14.26 2.69499 14.763Z" fill="#179F6E"/>
</svg>
