<svg width="20" height="20" viewBox="0 0 20 20" fill="none" xmlns="http://www.w3.org/2000/svg">
<path d="M2.69499 14.763L1.43299 17.917C1.39662 18.0078 1.38772 18.1074 1.40739 18.2033C1.42705 18.2991 1.47443 18.3871 1.54363 18.4563C1.61284 18.5255 1.70084 18.5729 1.79671 18.5926C1.89259 18.6123 1.99213 18.6034 2.08299 18.567L5.23799 17.305C5.74096 17.104 6.19786 16.8029 6.58099 16.42L17.5 5.49998C17.8978 5.10216 18.1213 4.56259 18.1213 3.99998C18.1213 3.43737 17.8978 2.89781 17.5 2.49998C17.1022 2.10216 16.5626 1.87866 16 1.87866C15.4374 1.87866 14.8978 2.10216 14.5 2.49998L3.57999 13.42C3.1971 13.8031 2.89602 14.26 2.69499 14.763Z" fill="#52525A"/>
</svg>
