<svg width="20" height="20" viewBox="0 0 20 20" fill="none" xmlns="http://www.w3.org/2000/svg">
<path fill-rule="evenodd" clip-rule="evenodd" d="M6.28 5.21999C6.42045 5.36062 6.49934 5.55124 6.49934 5.74999C6.49934 5.94874 6.42045 6.13937 6.28 6.27999L2.56 9.99999L6.28 13.72C6.41248 13.8622 6.4846 14.0502 6.48117 14.2445C6.47774 14.4388 6.39903 14.6242 6.26162 14.7616C6.12421 14.899 5.93882 14.9777 5.74452 14.9812C5.55022 14.9846 5.36217 14.9125 5.22 14.78L0.969996 10.53C0.829546 10.3894 0.750656 10.1987 0.750656 9.99999C0.750656 9.80124 0.829546 9.61062 0.969996 9.46999L5.22 5.21999C5.36062 5.07954 5.55125 5.00065 5.75 5.00065C5.94875 5.00065 6.13937 5.07954 6.28 5.21999ZM13.72 5.21999C13.8606 5.07954 14.0512 5.00065 14.25 5.00065C14.4487 5.00065 14.6394 5.07954 14.78 5.21999L19.03 9.46999C19.1704 9.61062 19.2493 9.80124 19.2493 9.99999C19.2493 10.1987 19.1704 10.3894 19.03 10.53L14.78 14.78C14.6378 14.9125 14.4498 14.9846 14.2555 14.9812C14.0612 14.9777 13.8758 14.899 13.7384 14.7616C13.601 14.6242 13.5222 14.4388 13.5188 14.2445C13.5154 14.0502 13.5875 13.8622 13.72 13.72L17.44 9.99999L13.72 6.27999C13.5795 6.13937 13.5007 5.94874 13.5007 5.74999C13.5007 5.55124 13.5795 5.36062 13.72 5.21999ZM11.377 2.01099C11.4741 2.02769 11.567 2.06336 11.6504 2.11598C11.7337 2.1686 11.8059 2.23713 11.8627 2.31765C11.9195 2.39817 11.9599 2.4891 11.9816 2.58525C12.0033 2.6814 12.0058 2.78088 11.989 2.87799L9.489 17.378C9.45264 17.5716 9.34157 17.7431 9.17978 17.8555C9.018 17.9679 8.81849 18.0121 8.62437 17.9787C8.43024 17.9452 8.25709 17.8366 8.14232 17.6765C8.02755 17.5164 7.98037 17.3176 8.011 17.123L10.511 2.62299C10.5447 2.42702 10.6549 2.25246 10.8173 2.1377C10.9797 2.02293 11.181 1.97736 11.377 2.01099Z" fill="#179F6E"/>
</svg>
