<svg width="20" height="20" viewBox="0 0 20 20" fill="none" xmlns="http://www.w3.org/2000/svg">
<path fill-rule="evenodd" clip-rule="evenodd" d="M6.28001 5.21999C6.42046 5.36062 6.49935 5.55124 6.49935 5.74999C6.49935 5.94874 6.42046 6.13937 6.28001 6.27999L2.56001 9.99999L6.28001 13.72C6.41249 13.8622 6.48461 14.0502 6.48119 14.2445C6.47776 14.4388 6.39905 14.6242 6.26163 14.7616C6.12422 14.899 5.93884 14.9777 5.74453 14.9812C5.55023 14.9846 5.36219 14.9125 5.22001 14.78L0.970011 10.53C0.829561 10.3894 0.750671 10.1987 0.750671 9.99999C0.750671 9.80124 0.829561 9.61062 0.970011 9.46999L5.22001 5.21999C5.36064 5.07954 5.55126 5.00065 5.75001 5.00065C5.94876 5.00065 6.13939 5.07954 6.28001 5.21999ZM13.72 5.21999C13.8606 5.07954 14.0513 5.00065 14.25 5.00065C14.4488 5.00065 14.6394 5.07954 14.78 5.21999L19.03 9.46999C19.1705 9.61062 19.2494 9.80124 19.2494 9.99999C19.2494 10.1987 19.1705 10.3894 19.03 10.53L14.78 14.78C14.6378 14.9125 14.4498 14.9846 14.2555 14.9812C14.0612 14.9777 13.8758 14.899 13.7384 14.7616C13.601 14.6242 13.5223 14.4388 13.5188 14.2445C13.5154 14.0502 13.5875 13.8622 13.72 13.72L17.44 9.99999L13.72 6.27999C13.5796 6.13937 13.5007 5.94874 13.5007 5.74999C13.5007 5.55124 13.5796 5.36062 13.72 5.21999ZM11.377 2.01099C11.4741 2.02769 11.567 2.06336 11.6504 2.11598C11.7337 2.1686 11.8059 2.23713 11.8627 2.31765C11.9196 2.39817 11.96 2.4891 11.9816 2.58525C12.0033 2.6814 12.0058 2.78088 11.989 2.87799L9.48901 17.378C9.45266 17.5716 9.34158 17.7431 9.1798 17.8555C9.01802 17.9679 8.81851 18.0121 8.62438 17.9787C8.43026 17.9452 8.2571 17.8366 8.14233 17.6765C8.02756 17.5164 7.98039 17.3176 8.01101 17.123L10.511 2.62299C10.5447 2.42702 10.6549 2.25246 10.8173 2.1377C10.9797 2.02293 11.181 1.97736 11.377 2.01099Z" fill="#52525A"/>
</svg>
