<svg width="20" height="20" viewBox="0 0 20 20" fill="none" xmlns="http://www.w3.org/2000/svg">
<path fill-rule="evenodd" clip-rule="evenodd" d="M18 10C18 12.1217 17.1571 14.1566 15.6569 15.6569C14.1566 17.1571 12.1217 18 10 18C7.87827 18 5.84344 17.1571 4.34315 15.6569C2.84285 14.1566 2 12.1217 2 10C2 7.87827 2.84285 5.84344 4.34315 4.34315C5.84344 2.84285 7.87827 2 10 2C12.1217 2 14.1566 2.84285 15.6569 4.34315C17.1571 5.84344 18 7.87827 18 10ZM8.94 6.94C8.87033 7.00967 8.78763 7.06493 8.6966 7.10263C8.60558 7.14033 8.50802 7.15974 8.4095 7.15974C8.31098 7.15974 8.21342 7.14033 8.1224 7.10263C8.03137 7.06493 7.94867 7.00967 7.879 6.94C7.80933 6.87033 7.75407 6.78763 7.71637 6.6966C7.67867 6.60558 7.65926 6.50802 7.65926 6.4095C7.65926 6.31098 7.67867 6.21342 7.71637 6.1224C7.75407 6.03137 7.80933 5.94867 7.879 5.879C8.2052 5.55275 8.60224 5.30612 9.03927 5.1583C9.4763 5.01047 9.94153 4.96544 10.3988 5.02669C10.8561 5.08794 11.293 5.25383 11.6758 5.51145C12.0585 5.76908 12.3766 6.11151 12.6055 6.5121C12.8343 6.9127 12.9677 7.36068 12.9952 7.82121C13.0227 8.28174 12.9436 8.74242 12.7641 9.16741C12.5846 9.59241 12.3095 9.97028 11.9602 10.2716C11.6108 10.573 11.1967 10.7897 10.75 10.905V11.25C10.75 11.4489 10.671 11.6397 10.5303 11.7803C10.3897 11.921 10.1989 12 10 12C9.80109 12 9.61032 11.921 9.46967 11.7803C9.32902 11.6397 9.25 11.4489 9.25 11.25V10.75C9.25 10.03 9.82 9.578 10.331 9.463C10.558 9.41192 10.7701 9.30871 10.9503 9.16155C11.1306 9.01438 11.2742 8.82729 11.3696 8.61507C11.4651 8.40286 11.5099 8.17133 11.5005 7.93881C11.4911 7.70629 11.4277 7.47916 11.3153 7.27537C11.203 7.07158 11.0447 6.89672 10.8531 6.76464C10.6616 6.63255 10.4419 6.54685 10.2114 6.51432C9.98101 6.48178 9.74618 6.50331 9.52551 6.57719C9.30484 6.65107 9.10438 6.77528 8.94 6.94ZM10 15C10.2652 15 10.5196 14.8946 10.7071 14.7071C10.8946 14.5196 11 14.2652 11 14C11 13.7348 10.8946 13.4804 10.7071 13.2929C10.5196 13.1054 10.2652 13 10 13C9.73478 13 9.48043 13.1054 9.29289 13.2929C9.10536 13.4804 9 13.7348 9 14C9 14.2652 9.10536 14.5196 9.29289 14.7071C9.48043 14.8946 9.73478 15 10 15Z" fill="#179F6E"/>
</svg>
